<?xml version="1.0" encoding="UTF-8"?>
<svg version="1.1" xmlns="http://www.w3.org/2000/svg" width="70" height="70">
<path d="M0 0 C3.45347839 0.60876802 5.08346986 1.78373518 7.37109375 4.41796875 C7.86609375 5.99578125 7.86609375 5.99578125 8.37109375 7.60546875 C9.03109375 8.53359375 9.69109375 9.46171875 10.37109375 10.41796875 C13.67240908 10.90738207 16.91622777 10.98672786 20.25 11.109375 C23.37109375 11.41796875 23.37109375 11.41796875 26.68359375 13.41796875 C29.0115731 17.5565987 29.25490813 20.77406687 28.37109375 25.41796875 C27.43525039 27.57968958 26.35307673 29.58815177 25.20703125 31.64453125 C24.17672497 33.48714981 24.17672497 33.48714981 24.43359375 36.04296875 C25.35441652 38.5382967 25.35441652 38.5382967 26.93359375 41.16796875 C28.79057989 45.3663722 29.13792046 48.89202415 28.37109375 53.41796875 C26.25717498 56.91686879 25.25373316 58.12375561 21.37109375 59.41796875 C19.74471531 59.28840979 18.11972172 59.14085753 16.49609375 58.98046875 C13.83120008 58.83881494 13.83120008 58.83881494 11.37109375 59.41796875 C9.59176749 61.289103 8.60309948 63.14315716 7.43359375 65.4375 C5.89546096 68.30453429 4.40023271 69.29084728 1.37109375 70.41796875 C-3.76952414 71.07074563 -5.58515855 71.07514323 -10.00390625 68.29296875 C-12.70738424 65.33201666 -13.72954702 63.28521345 -14.62890625 59.41796875 C-15.35335938 59.45277344 -16.0778125 59.48757812 -16.82421875 59.5234375 C-27.48047158 59.82181258 -27.48047158 59.82181258 -31.62890625 56.41796875 C-33.99939966 50.59050579 -33.90621978 46.25130128 -31.62890625 40.41796875 C-31.01015625 39.40734375 -30.39140625 38.39671875 -29.75390625 37.35546875 C-29.38265625 36.38609375 -29.01140625 35.41671875 -28.62890625 34.41796875 C-30.18389607 31.19938765 -30.18389607 31.19938765 -31.55859375 29.20703125 C-33.90518877 25.28462059 -33.86103679 21.51531312 -32.94140625 17.16796875 C-31.45913379 14.06225502 -30.58913803 13.11305973 -27.62890625 11.41796875 C-24.39453125 11.125 -24.39453125 11.125 -20.87890625 11.23046875 C-19.12320312 11.27107422 -19.12320312 11.27107422 -17.33203125 11.3125 C-16.44 11.34730469 -15.54796875 11.38210938 -14.62890625 11.41796875 C-14.34015625 10.48726562 -14.05140625 9.5565625 -13.75390625 8.59765625 C-11.19902575 1.3765704 -7.2676152 -0.39955685 0 0 Z M-2.62890625 10.41796875 C-3.28890625 11.07796875 -3.94890625 11.73796875 -4.62890625 12.41796875 C-4.62890625 13.40796875 -4.62890625 14.39796875 -4.62890625 15.41796875 C-2.97890625 15.41796875 -1.32890625 15.41796875 0.37109375 15.41796875 C-0.28890625 13.76796875 -0.94890625 12.11796875 -1.62890625 10.41796875 C-1.95890625 10.41796875 -2.28890625 10.41796875 -2.62890625 10.41796875 Z M-22.62890625 20.41796875 C-22.95890625 21.07796875 -23.28890625 21.73796875 -23.62890625 22.41796875 C-22.23797733 25.0418401 -22.23797733 25.0418401 -20.62890625 27.41796875 C-19.63890625 26.75796875 -18.64890625 26.09796875 -17.62890625 25.41796875 C-17.95890625 23.76796875 -18.28890625 22.11796875 -18.62890625 20.41796875 C-19.94890625 20.41796875 -21.26890625 20.41796875 -22.62890625 20.41796875 Z M13.37109375 20.41796875 C13.04109375 21.07796875 12.71109375 21.73796875 12.37109375 22.41796875 C13.2647298 25.02728141 13.2647298 25.02728141 14.37109375 27.41796875 C15.69109375 26.09796875 17.01109375 24.77796875 18.37109375 23.41796875 C18.04109375 22.42796875 17.71109375 21.43796875 17.37109375 20.41796875 C16.05109375 20.41796875 14.73109375 20.41796875 13.37109375 20.41796875 Z M-20.62890625 43.41796875 C-21.28890625 44.07796875 -21.94890625 44.73796875 -22.62890625 45.41796875 C-22.62890625 46.73796875 -22.62890625 48.05796875 -22.62890625 49.41796875 C-20.97890625 49.41796875 -19.32890625 49.41796875 -17.62890625 49.41796875 C-17.62890625 47.76796875 -17.62890625 46.11796875 -17.62890625 44.41796875 C-18.61890625 44.08796875 -19.60890625 43.75796875 -20.62890625 43.41796875 Z M13.37109375 43.41796875 C13.04109375 45.39796875 12.71109375 47.37796875 12.37109375 49.41796875 C14.35109375 49.41796875 16.33109375 49.41796875 18.37109375 49.41796875 C17.86505383 47.24922623 17.37125562 45.41829248 16.37109375 43.41796875 C15.38109375 43.41796875 14.39109375 43.41796875 13.37109375 43.41796875 Z M-3.62890625 54.41796875 C-4.28890625 55.07796875 -4.94890625 55.73796875 -5.62890625 56.41796875 C-4.63890625 57.90296875 -4.63890625 57.90296875 -3.62890625 59.41796875 C-2.30890625 58.75796875 -0.98890625 58.09796875 0.37109375 57.41796875 C0.04109375 56.42796875 -0.28890625 55.43796875 -0.62890625 54.41796875 C-1.61890625 54.41796875 -2.60890625 54.41796875 -3.62890625 54.41796875 Z " fill="#6392C1" transform="translate(37.62890625,-0.41796875)"/>
<path d="M0 0 C3.45347839 0.60876802 5.08346986 1.78373518 7.37109375 4.41796875 C7.86609375 5.99578125 7.86609375 5.99578125 8.37109375 7.60546875 C9.03109375 8.53359375 9.69109375 9.46171875 10.37109375 10.41796875 C13.67240908 10.90738207 16.91622777 10.98672786 20.25 11.109375 C23.37109375 11.41796875 23.37109375 11.41796875 26.68359375 13.41796875 C29.0115731 17.5565987 29.25490813 20.77406687 28.37109375 25.41796875 C27.43525039 27.57968958 26.35307673 29.58815177 25.20703125 31.64453125 C24.17672497 33.48714981 24.17672497 33.48714981 24.43359375 36.04296875 C25.35441652 38.5382967 25.35441652 38.5382967 26.93359375 41.16796875 C28.79057989 45.3663722 29.13792046 48.89202415 28.37109375 53.41796875 C26.25717498 56.91686879 25.25373316 58.12375561 21.37109375 59.41796875 C19.74471531 59.28840979 18.11972172 59.14085753 16.49609375 58.98046875 C13.83120008 58.83881494 13.83120008 58.83881494 11.37109375 59.41796875 C9.59176749 61.289103 8.60309948 63.14315716 7.43359375 65.4375 C5.89546096 68.30453429 4.40023271 69.29084728 1.37109375 70.41796875 C-3.76952414 71.07074563 -5.58515855 71.07514323 -10.00390625 68.29296875 C-12.70738424 65.33201666 -13.72954702 63.28521345 -14.62890625 59.41796875 C-15.35335938 59.45277344 -16.0778125 59.48757812 -16.82421875 59.5234375 C-27.48047158 59.82181258 -27.48047158 59.82181258 -31.62890625 56.41796875 C-33.99939966 50.59050579 -33.90621978 46.25130128 -31.62890625 40.41796875 C-31.01015625 39.40734375 -30.39140625 38.39671875 -29.75390625 37.35546875 C-29.38265625 36.38609375 -29.01140625 35.41671875 -28.62890625 34.41796875 C-30.18389607 31.19938765 -30.18389607 31.19938765 -31.55859375 29.20703125 C-33.90518877 25.28462059 -33.86103679 21.51531312 -32.94140625 17.16796875 C-31.45913379 14.06225502 -30.58913803 13.11305973 -27.62890625 11.41796875 C-24.39453125 11.125 -24.39453125 11.125 -20.87890625 11.23046875 C-19.12320312 11.27107422 -19.12320312 11.27107422 -17.33203125 11.3125 C-16.44 11.34730469 -15.54796875 11.38210938 -14.62890625 11.41796875 C-14.34015625 10.48726562 -14.05140625 9.5565625 -13.75390625 8.59765625 C-11.19902575 1.3765704 -7.2676152 -0.39955685 0 0 Z M-9.55078125 7.6171875 C-10.85541314 9.79630091 -11.73889657 12.04326111 -12.62890625 14.41796875 C-13.5209375 14.38316406 -14.41296875 14.34835937 -15.33203125 14.3125 C-17.08773438 14.27189453 -17.08773438 14.27189453 -18.87890625 14.23046875 C-20.0390625 14.19566406 -21.19921875 14.16085937 -22.39453125 14.125 C-25.89061102 14.44167389 -27.23263165 14.89466273 -29.62890625 17.41796875 C-30.79812148 23.37033717 -29.3584094 26.33461289 -26.12890625 31.41796875 C-24.97944465 33.09654759 -23.81827028 34.76742275 -22.62890625 36.41796875 C-23.28890625 36.41796875 -23.94890625 36.41796875 -24.62890625 36.41796875 C-27.7571795 39.98230433 -29.96644224 43.88887962 -30.25390625 48.66796875 C-29.9433298 52.46202305 -29.9433298 52.46202305 -27.56640625 54.91796875 C-22.80217503 57.35076767 -18.64035743 56.76678384 -13.62890625 55.41796875 C-13.30277344 56.04445312 -12.97664063 56.6709375 -12.640625 57.31640625 C-12.20363281 58.13367187 -11.76664063 58.9509375 -11.31640625 59.79296875 C-10.88714844 60.60507812 -10.45789063 61.4171875 -10.015625 62.25390625 C-8.66111901 64.68630918 -8.66111901 64.68630918 -5.62890625 66.41796875 C-2.21391034 67.08504423 -2.21391034 67.08504423 1.37109375 66.41796875 C4.94502312 63.07712173 6.93671378 60.34094169 7.37109375 55.41796875 C8.36109375 55.66546875 8.36109375 55.66546875 9.37109375 55.91796875 C14.7382132 56.81248866 19.49665037 57.16459275 24.37109375 54.41796875 C25.15150545 46.49225901 25.15150545 46.49225901 21.80859375 39.60546875 C21.3496875 39.07179687 20.89078125 38.538125 20.41796875 37.98828125 C19.37109375 36.41796875 19.37109375 36.41796875 19.55859375 32.98046875 C19.82671875 32.13484375 20.09484375 31.28921875 20.37109375 30.41796875 C21.03109375 30.41796875 21.69109375 30.41796875 22.37109375 30.41796875 C24.63386206 25.89243214 24.85165737 22.3837928 24.37109375 17.41796875 C22.9887008 15.21370388 22.9887008 15.21370388 20.37109375 14.41796875 C15.80835258 14.1282709 11.82227699 14.30517294 7.37109375 15.41796875 C7.30921875 14.53109375 7.24734375 13.64421875 7.18359375 12.73046875 C6.18507298 8.65957637 4.4804806 7.13868224 1.37109375 4.41796875 C1.04109375 4.08796875 0.71109375 3.75796875 0.37109375 3.41796875 C-4.60765056 2.62589579 -6.46762107 3.63991087 -9.55078125 7.6171875 Z " fill="#61A1E3" transform="translate(37.62890625,-0.41796875)"/>
<path d="M0 0 C4.1633677 0.66613883 5.49203081 2.28192655 8.125 5.5 C9.80736531 8.22382956 10.125 9.23884371 10.125 12.5 C10.785 12.335 11.445 12.17 12.125 12 C16.76116351 11.22730608 21.15408633 10.71163453 25.625 12.5 C27.95790408 15.61053877 27.62712143 18.8129941 27.125 22.5 C26.125 25.5 26.125 25.5 25.125 27.5 C24.465 27.5 23.805 27.5 23.125 27.5 C22.1634842 30.16206077 22.1634842 30.16206077 22.125 33.5 C23.15941294 35.1967869 23.15941294 35.1967869 24.5625 36.8125 C27.85083263 40.86387115 27.63793771 44.4732104 27.125 49.5 C26.135 49.995 26.135 49.995 25.125 50.5 C24.97804688 49.62988281 24.97804688 49.62988281 24.828125 48.7421875 C23.80775054 43.4116106 22.52664926 39.75206157 19.125 35.5 C18.135 35.005 18.135 35.005 17.125 34.5 C17.125 33.51 17.125 32.52 17.125 31.5 C14.65 30.51 14.65 30.51 12.125 29.5 C11.795 30.16 11.465 30.82 11.125 31.5 C11.125 29.52 11.125 27.54 11.125 25.5 C10.135 25.5 9.145 25.5 8.125 25.5 C8.125 24.84 8.125 24.18 8.125 23.5 C9.445 23.17 10.765 22.84 12.125 22.5 C12.74375 23.675625 12.74375 23.675625 13.375 24.875 C15.20876961 27.62565442 16.20494153 28.20889977 19.125 29.5 C23.50466192 23.58171952 23.50466192 23.58171952 24.125 16.5 C21.48041621 15.17770811 19.44738699 15.40322806 16.5 15.4375 C14.99566406 15.45103516 14.99566406 15.45103516 13.4609375 15.46484375 C12.30464844 15.48224609 12.30464844 15.48224609 11.125 15.5 C10.795 16.82 10.465 18.14 10.125 19.5 C10.125 18.84 10.125 18.18 10.125 17.5 C8.805 17.17 7.485 16.84 6.125 16.5 C6.785 16.5 7.445 16.5 8.125 16.5 C8.125 15.84 8.125 15.18 8.125 14.5 C7.465 14.17 6.805 13.84 6.125 13.5 C5.53144386 10.85139573 5.38290731 8.20802678 5.125 5.5 C2.815 5.17 0.505 4.84 -1.875 4.5 C-6.21172092 10.4822751 -8.25212064 16.32238722 -9.875 23.5 C-10.205 23.5 -10.535 23.5 -10.875 23.5 C-10.875 20.86 -10.875 18.22 -10.875 15.5 C-12.49990954 15.47301811 -14.12494633 15.45361243 -15.75 15.4375 C-16.65492187 15.42589844 -17.55984375 15.41429687 -18.4921875 15.40234375 C-20.8918585 15.33750743 -20.8918585 15.33750743 -22.875 16.5 C-22.4067879 21.27576339 -21.63168002 24.54476345 -18.875 28.5 C-16.00775314 27.92655063 -15.0135485 27.6385485 -12.875 25.5 C-11.885 25.5 -10.895 25.5 -9.875 25.5 C-9.81441406 26.33144531 -9.75382812 27.16289062 -9.69140625 28.01953125 C-9.56572266 29.64955078 -9.56572266 29.64955078 -9.4375 31.3125 C-9.31568359 32.93091797 -9.31568359 32.93091797 -9.19140625 34.58203125 C-8.97287539 37.55989905 -8.97287539 37.55989905 -7.875 40.5 C-8.535 40.5 -9.195 40.5 -9.875 40.5 C-9.215 42.81 -8.555 45.12 -7.875 47.5 C-6.555 47.5 -5.235 47.5 -3.875 47.5 C-3.875 48.16 -3.875 48.82 -3.875 49.5 C-4.865 49.5 -5.855 49.5 -6.875 49.5 C-6.42158132 50.77259511 -5.96204773 52.04301243 -5.5 53.3125 C-5.24476562 54.02019531 -4.98953125 54.72789063 -4.7265625 55.45703125 C-3.8484231 57.74773359 -3.8484231 57.74773359 -1.875 60.5 C0.18425139 61.22382467 0.18425139 61.22382467 2.125 61.5 C2.125 62.16 2.125 62.82 2.125 63.5 C-0.98098668 63.84510963 -2.40401525 63.85680663 -4.9375 61.9375 C-7.31889791 58.94154779 -9.06053976 55.86971188 -10.875 52.5 C-11.6484375 52.7475 -11.6484375 52.7475 -12.4375 53 C-17.05065419 53.94628804 -20.55336367 54.17487812 -24.8125 52 C-27.13887827 49.18014755 -27.59446647 47.32050506 -27.375 43.671875 C-26.48433994 39.80307036 -24.48490637 36.4737115 -21.875 33.5 C-21.215 33.5 -20.555 33.5 -19.875 33.5 C-20.3803125 32.79875 -20.885625 32.0975 -21.40625 31.375 C-27.38027704 22.651024 -27.38027704 22.651024 -27.5625 18 C-26.875 14.5 -26.875 14.5 -25.25390625 12.79296875 C-22.07556312 11.0654949 -19.71929287 11.20467121 -16.125 11.3125 C-14.36929687 11.35310547 -14.36929687 11.35310547 -12.578125 11.39453125 C-11.68609375 11.42933594 -10.7940625 11.46414063 -9.875 11.5 C-9.62105469 10.95730469 -9.36710937 10.41460937 -9.10546875 9.85546875 C-8.76128906 9.14003906 -8.41710937 8.42460937 -8.0625 7.6875 C-7.55783203 6.62595703 -7.55783203 6.62595703 -7.04296875 5.54296875 C-5.1219788 2.18284252 -3.87480673 0.67387943 0 0 Z M-17.875 40.5 C-18.535 41.16 -19.195 41.82 -19.875 42.5 C-19.875 43.82 -19.875 45.14 -19.875 46.5 C-18.225 46.5 -16.575 46.5 -14.875 46.5 C-14.875 44.85 -14.875 43.2 -14.875 41.5 C-15.865 41.17 -16.855 40.84 -17.875 40.5 Z " fill="#5F758C" transform="translate(34.875,2.5)"/>
<path d="M0 0 C0.66 0 1.32 0 2 0 C2.061875 0.61875 2.12375 1.2375 2.1875 1.875 C2.828919 4.27761141 2.828919 4.27761141 5.5625 5.25 C6.366875 5.4975 7.17125 5.745 8 6 C8 6.99 8 7.98 8 9 C8.5775 9.185625 9.155 9.37125 9.75 9.5625 C12.99728379 11.63715353 14.5062683 14.54574545 16 18 C16.6875 21.3125 16.6875 21.3125 17 24 C17.495 24.99 17.495 24.99 18 26 C13.44386953 29.03742032 8.15180939 28.3586349 3 27.5 C2.34 27.335 1.68 27.17 1 27 C0.7525 27.886875 0.505 28.77375 0.25 29.6875 C-1.04964625 33.13156256 -2.48729227 35.33024803 -5 38 C-5.66 38 -6.32 38 -7 38 C-7 37.34 -7 36.68 -7 36 C-7.7425 35.979375 -8.485 35.95875 -9.25 35.9375 C-12.83762513 34.71444598 -13.53635437 33.10174163 -15.30078125 29.88671875 C-16 28 -16 28 -16 24 C-15.01 24 -14.02 24 -13 24 C-13 23.34 -13 22.68 -13 22 C-14.32 22.33 -15.64 22.66 -17 23 C-19.1519437 19.77208445 -19.20086443 18.71599191 -19 15 C-17.25 14.3125 -17.25 14.3125 -15 14 C-14.360625 14.495 -13.72125 14.99 -13.0625 15.5 C-11.09550738 17.26102736 -11.09550738 17.26102736 -8.5625 16.875 C-5.76116831 15.91844771 -3.50728797 14.55858441 -1 13 C-0.34 13 0.32 13 1 13 C0.505 6.565 0.505 6.565 0 0 Z M7 15 C6.67 16.98 6.34 18.96 6 21 C7.98 21 9.96 21 12 21 C11.49396008 18.83125748 11.00016187 17.00032373 10 15 C9.01 15 8.02 15 7 15 Z M-10 26 C-10.66 26.66 -11.32 27.32 -12 28 C-11.01 29.485 -11.01 29.485 -10 31 C-8.68 30.34 -7.36 29.68 -6 29 C-6.33 28.01 -6.66 27.02 -7 26 C-7.99 26 -8.98 26 -10 26 Z " fill="#607588" transform="translate(44,28)"/>
<path d="M0 0 C3.97463863 0.91085469 5.44404575 2.56355591 8 5.6875 C9.68236531 8.41132956 10 9.42634371 10 12.6875 C10.66 12.5225 11.32 12.3575 12 12.1875 C16.63616351 11.41480608 21.02908633 10.89913453 25.5 12.6875 C27.83290408 15.79803877 27.50212143 19.0004941 27 22.6875 C26 25.6875 26 25.6875 25 27.6875 C24.34 27.6875 23.68 27.6875 23 27.6875 C22.0384842 30.34956077 22.0384842 30.34956077 22 33.6875 C23.03441294 35.3842869 23.03441294 35.3842869 24.4375 37 C27.72583263 41.05137115 27.51293771 44.6607104 27 49.6875 C26.01 50.1825 26.01 50.1825 25 50.6875 C24.85304688 49.81738281 24.85304688 49.81738281 24.703125 48.9296875 C23.68275054 43.5991106 22.40164926 39.93956157 19 35.6875 C18.34 35.3575 17.68 35.0275 17 34.6875 C17 33.6975 17 32.7075 17 31.6875 C15.35 31.0275 13.7 30.3675 12 29.6875 C11.67 30.3475 11.34 31.0075 11 31.6875 C11 29.7075 11 27.7275 11 25.6875 C10.01 25.6875 9.02 25.6875 8 25.6875 C8 25.0275 8 24.3675 8 23.6875 C9.32 23.3575 10.64 23.0275 12 22.6875 C12.4125 23.47125 12.825 24.255 13.25 25.0625 C15.08376961 27.81315442 16.07994153 28.39639977 19 29.6875 C23.37966192 23.76921952 23.37966192 23.76921952 24 16.6875 C21.35541621 15.36520811 19.32238699 15.59072806 16.375 15.625 C14.87066406 15.63853516 14.87066406 15.63853516 13.3359375 15.65234375 C12.17964844 15.66974609 12.17964844 15.66974609 11 15.6875 C10.67 17.0075 10.34 18.3275 10 19.6875 C10 19.0275 10 18.3675 10 17.6875 C8.68 17.3575 7.36 17.0275 6 16.6875 C6.66 16.6875 7.32 16.6875 8 16.6875 C8 16.0275 8 15.3675 8 14.6875 C7.34 14.3575 6.68 14.0275 6 13.6875 C5.40644386 11.03889573 5.25790731 8.39552678 5 5.6875 C2.69 5.3575 0.38 5.0275 -2 4.6875 C-6.33672092 10.6697751 -8.37712064 16.50988722 -10 23.6875 C-10.33 23.6875 -10.66 23.6875 -11 23.6875 C-11.33 20.3875 -11.66 17.0875 -12 13.6875 C-11.01 13.6875 -10.02 13.6875 -9 13.6875 C-8.938125 12.65625 -8.87625 11.625 -8.8125 10.5625 C-7.68119575 5.16704895 -5.7849878 1.32572637 0 0 Z " fill="#5F7488" transform="translate(35,2.3125)"/>
<path d="M0 0 C0.7734375 0.00386719 1.546875 0.00773437 2.34375 0.01171875 C4.5 0.3125 4.5 0.3125 7.5 2.3125 C7.12257767 8.47706476 5.34129692 11.48625515 1.5 16.3125 C-1.33860343 15.19733437 -2.53423788 14.26832208 -4.4375 11.8125 C-6.71698014 9.04949377 -8.25437056 8.59366952 -11.5 7.3125 C-12.8125 5.1875 -12.8125 5.1875 -13.5 3.3125 C-12.1078125 3.4053125 -12.1078125 3.4053125 -10.6875 3.5 C-7.52409903 3.67812514 -7.52409903 3.67812514 -6.08203125 1.8203125 C-3.99791149 -0.16603374 -2.8338116 -0.06139925 0 0 Z M-1.5 3.3125 C-1.83 3.9725 -2.16 4.6325 -2.5 5.3125 C-1.60636395 7.92181266 -1.60636395 7.92181266 -0.5 10.3125 C0.82 8.9925 2.14 7.6725 3.5 6.3125 C3.17 5.3225 2.84 4.3325 2.5 3.3125 C1.18 3.3125 -0.14 3.3125 -1.5 3.3125 Z " fill="#64A2E1" transform="translate(52.5,16.6875)"/>
<path d="M0 0 C0.99 0 1.98 0 3 0 C3.06058594 0.83144531 3.12117188 1.66289062 3.18359375 2.51953125 C3.26738281 3.60621094 3.35117187 4.69289063 3.4375 5.8125 C3.55931641 7.43091797 3.55931641 7.43091797 3.68359375 9.08203125 C3.90212461 12.05989905 3.90212461 12.05989905 5 15 C4.34 15 3.68 15 3 15 C3.66 17.31 4.32 19.62 5 22 C6.32 22 7.64 22 9 22 C9 22.66 9 23.32 9 24 C8.01 24 7.02 24 6 24 C6.45341868 25.27259511 6.91295227 26.54301243 7.375 27.8125 C7.63023438 28.52019531 7.88546875 29.22789063 8.1484375 29.95703125 C9.0265769 32.24773359 9.0265769 32.24773359 11 35 C13.05925139 35.72382467 13.05925139 35.72382467 15 36 C15 36.66 15 37.32 15 38 C11.83166132 38.35203763 10.45154844 38.34530175 7.875 36.375 C5.45849962 33.31409952 3 30.01806611 3 26 C1.35 26 -0.3 26 -2 26 C-2 25.34 -2 24.68 -2 24 C-0.68 24 0.64 24 2 24 C1.835 23.484375 1.67 22.96875 1.5 22.4375 C0.84951 19.26636124 0.9379266 16.22781666 1 13 C0.01 12.67 -0.98 12.34 -2 12 C-2 11.01 -2 10.02 -2 9 C-1.01 9 -0.02 9 1 9 C1 7.35 1 5.7 1 4 C-1.31 5.32 -3.62 6.64 -6 8 C-5.67 7.01 -5.34 6.02 -5 5 C-4.34 5 -3.68 5 -3 5 C-2.5359375 4.0409375 -2.5359375 4.0409375 -2.0625 3.0625 C-1 1 -1 1 0 0 Z " fill="#5F7284" transform="translate(22,28)"/>
<path d="M0 0 C2.49361571 1.20381448 4.68143083 2.45428722 7 4 C7.51171875 6.6015625 7.51171875 6.6015625 7.6875 9.625 C7.78611328 11.12933594 7.78611328 11.12933594 7.88671875 12.6640625 C7.92410156 13.43492188 7.96148437 14.20578125 8 15 C4.25108903 16.03218914 0.89823257 16.21656848 -3 16 C-5 14 -5 14 -5.4375 11.375 C-4.83929863 6.7603037 -2.65722862 3.73910028 0 0 Z M1 6 C0.34 6.66 -0.32 7.32 -1 8 C-1 9.32 -1 10.64 -1 12 C0.65 12 2.3 12 4 12 C4 10.35 4 8.7 4 7 C3.01 6.67 2.02 6.34 1 6 Z " fill="#5CA3E9" transform="translate(16,37)"/>
<path d="M0 0 C3.9591377 1.27257998 5.38180823 3.68166134 7.24609375 7.18359375 C8.23449654 9.5649787 8.37380065 11.4581556 8 14 C7 15 7 15 4.53125 15.1328125 C3.03078125 15.12894531 3.03078125 15.12894531 1.5 15.125 C0.4996875 15.12757812 -0.500625 15.13015625 -1.53125 15.1328125 C-4 15 -4 15 -5 14 C-5.30057803 6.03468208 -5.30057803 6.03468208 -4 3 C-1.9375 1.25 -1.9375 1.25 0 0 Z M-1 6 C-1.33 7.98 -1.66 9.96 -2 12 C-0.02 12 1.96 12 4 12 C3.49396008 9.83125748 3.00016187 8.00032373 2 6 C1.01 6 0.02 6 -1 6 Z " fill="#5CA3EE" transform="translate(52,37)"/>
<path d="M0 0 C0.66 0.33 1.32 0.66 2 1 C1.65541295 10.0281808 1.65541295 10.0281808 -0.8125 13.6875 C-3 15 -3 15 -5 15.1875 C-8.19161743 13.29247715 -9.62629603 10.33211272 -11 7 C-11.4375 4.1875 -11.4375 4.1875 -11 2 C-6.94641576 -0.70238949 -4.81689896 -0.22937614 0 0 Z M-7 3 C-7.33 3.66 -7.66 4.32 -8 5 C-6.60907108 7.62387135 -6.60907108 7.62387135 -5 10 C-4.01 9.34 -3.02 8.68 -2 8 C-2.33 6.35 -2.66 4.7 -3 3 C-4.32 3 -5.64 3 -7 3 Z " fill="#67A0DD" transform="translate(22,17)"/>
<path d="M0 0 C2.6580458 0.27979429 4.52534201 0.67791065 6.75 2.1875 C8.47091655 4.68282899 8.66943712 7.02493408 9 10 C6.59688219 12.21826259 5.30074854 12.96867203 2 13.3125 C-0.87031397 13.01350896 -2.56821192 12.49648497 -5 11 C-4.39373981 6.75617868 -3.09595976 3.09595976 0 0 Z M2 4 C1.34 4.66 0.68 5.32 0 6 C0 6.99 0 7.98 0 9 C1.65 9 3.3 9 5 9 C4.34 7.35 3.68 5.7 3 4 C2.67 4 2.34 4 2 4 Z " fill="#659FDA" transform="translate(33,6)"/>
<path d="M0 0 C0.99 0.66 1.98 1.32 3 2 C2.53374641 6.10303158 2.15936057 9.16746984 -1 12 C-4.1875 12.25 -4.1875 12.25 -7 12 C-11 5.5 -11 5.5 -11 1 C-6.92809781 -1.03595109 -4.39758611 -1.14719638 0 0 Z M-5 3 C-5.66 3.66 -6.32 4.32 -7 5 C-6.01 6.485 -6.01 6.485 -5 8 C-3.68 7.34 -2.36 6.68 -1 6 C-1.33 5.01 -1.66 4.02 -2 3 C-2.99 3 -3.98 3 -5 3 Z " fill="#5EA2E6" transform="translate(39,51)"/>
<path d="M0 0 C2 0.875 2 0.875 4 2 C6.64458379 3.32229189 8.67761301 3.09677194 11.625 3.0625 C12.62789062 3.05347656 13.63078125 3.04445312 14.6640625 3.03515625 C15.82035156 3.01775391 15.82035156 3.01775391 17 3 C17 4.65 17 6.3 17 8 C16.154375 7.773125 15.30875 7.54625 14.4375 7.3125 C9.99422997 6.90856636 7.94604801 8.02697599 4 10 C4 9.34 4 8.68 4 8 C2.68 8.33 1.36 8.66 0 9 C-2.1519437 5.77208445 -2.20086443 4.71599191 -2 1 C-1.34 0.67 -0.68 0.34 0 0 Z " fill="#617587" transform="translate(27,42)"/>
<path d="M0 0 C2.9375 0.8125 2.9375 0.8125 4.9375 2.8125 C5.29773622 5.62234248 5.32082602 7.19491919 3.8125 9.625 C1.07762639 11.35708662 -0.89990129 11.21623601 -4.0625 10.8125 C-6.21752531 7.57996204 -6.53106135 6.56099077 -6.0625 2.8125 C-4.28235296 -0.15441173 -3.48497618 -0.21336589 0 0 Z " fill="#656F7A" transform="translate(36.0625,29.1875)"/>
<path d="M0 0 C0.33 0 0.66 0 1 0 C1.1953125 2.05078125 1.390625 4.1015625 1.5859375 6.15234375 C1.72257813 6.76207031 1.85921875 7.37179688 2 8 C2.66 8.33 3.32 8.66 4 9 C4 9.66 4 10.32 4 11 C8.95 11.33 13.9 11.66 19 12 C19.33 14.31 19.66 16.62 20 19 C18.5 17.625 18.5 17.625 17 16 C17 15.34 17 14.68 17 14 C15.91332031 14.05220703 15.91332031 14.05220703 14.8046875 14.10546875 C4.14843467 14.40384383 4.14843467 14.40384383 0 11 C-1.21653767 8.38144358 -1.95331095 5.89472094 -2 3 C-1.34 2.01 -0.68 1.02 0 0 Z " fill="#5BA3F0" transform="translate(6,45)"/>
<path d="M0 0 C0.9075 0.103125 1.815 0.20625 2.75 0.3125 C2.75 0.9725 2.75 1.6325 2.75 2.3125 C2.028125 2.456875 1.30625 2.60125 0.5625 2.75 C-4.39141252 5.50217362 -6.45587004 10.59444695 -8.0078125 15.90625 C-8.48465399 18.02853044 -8.87586507 20.16972723 -9.25 22.3125 C-9.58 22.3125 -9.91 22.3125 -10.25 22.3125 C-10.58 19.0125 -10.91 15.7125 -11.25 12.3125 C-10.26 12.3125 -9.27 12.3125 -8.25 12.3125 C-8.1675 11.260625 -8.085 10.20875 -8 9.125 C-6.96421163 3.85974248 -5.67430775 0.54560651 0 0 Z " fill="#607183" transform="translate(34.25,3.6875)"/>
<path d="M0 0 C0.66 0.99 1.32 1.98 2 3 C4.82979281 3.32721066 4.82979281 3.32721066 8 3.125 C13.82959641 2.91479821 13.82959641 2.91479821 16 4 C16 4.66 16 5.32 16 6 C11.44386953 9.03742032 6.15180939 8.3586349 1 7.5 C0.34 7.335 -0.32 7.17 -1 7 C-0.67 4.69 -0.34 2.38 0 0 Z " fill="#627D99" transform="translate(46,48)"/>
<path d="M0 0 C3.875 1.75 3.875 1.75 5 4 C4.21625 4.12375 3.4325 4.2475 2.625 4.375 C-0.14057822 4.79117993 -0.14057822 4.79117993 -2 7 C-2.40047444 9.32275177 -2.7397104 11.65739357 -3 14 C0.3 14 3.6 14 7 14 C7.33 13.01 7.66 12.02 8 11 C8 12.32 8 13.64 8 15 C4.31620978 16.17881287 0.84458427 16.21358801 -3 16 C-5 14 -5 14 -5.4375 11.375 C-4.83929863 6.7603037 -2.65722862 3.73910028 0 0 Z " fill="#679ED4" transform="translate(16,37)"/>
<path d="M0 0 C3.19306028 2.90278207 4.88242597 5.31477219 5.1875 9.6875 C5 12 5 12 4 13 C2.16884117 13.09851171 0.33380067 13.12972629 -1.5 13.125 C-2.5003125 13.12757812 -3.500625 13.13015625 -4.53125 13.1328125 C-7 13 -7 13 -8 12 C-8.04092937 9.66702567 -8.04241723 7.33294775 -8 5 C-7.67 5 -7.34 5 -7 5 C-6.67 6.98 -6.34 8.96 -6 11 C-2.535 10.505 -2.535 10.505 1 10 C1.08004482 6.4780279 1.04005702 3.38018531 0 0 Z " fill="#669FD9" transform="translate(55,39)"/>
<path d="M0 0 C0.99 0.33 1.98 0.66 3 1 C3.433125 2.485 3.433125 2.485 3.875 4 C5.70200735 7.30717883 5.70200735 7.30717883 9.08203125 7.6171875 C12.39580165 7.85414183 15.67817921 7.99052262 19 8 C19 8.66 19 9.32 19 10 C14.24927623 10.46285807 9.73191777 10.71809398 5 10 C2.29713767 7.7364174 1.03490386 5.34663714 0 2 C0 1.34 0 0.68 0 0 Z " fill="#57A4EE" transform="translate(42,3)"/>
<path d="M0 0 C0.33 0.66 0.66 1.32 1 2 C3.34907875 2.68931344 3.34907875 2.68931344 6.0625 3.125 C6.98160156 3.29257812 7.90070312 3.46015625 8.84765625 3.6328125 C9.91306641 3.81457031 9.91306641 3.81457031 11 4 C11 4.33 11 4.66 11 5 C10.0925 5.268125 9.185 5.53625 8.25 5.8125 C5.26502899 6.90316248 3.45887276 8.06802855 1 10 C0.34 10 -0.32 10 -1 10 C-1.125 2.25 -1.125 2.25 0 0 Z " fill="#5F768E" transform="translate(27,15)"/>
<path d="M0 0 C0.5775 0.226875 1.155 0.45375 1.75 0.6875 C1.75 2.3375 1.75 3.9875 1.75 5.6875 C0.43 4.6975 -0.89 3.7075 -2.25 2.6875 C-2.91 4.0075 -3.57 5.3275 -4.25 6.6875 C-1.28 7.1825 -1.28 7.1825 1.75 7.6875 C1.09 8.3475 0.43 9.0075 -0.25 9.6875 C-3.875 9.3125 -3.875 9.3125 -7.25 8.6875 C-7.58 7.6975 -7.91 6.7075 -8.25 5.6875 C-7.59 5.6875 -6.93 5.6875 -6.25 5.6875 C-6.25 4.6975 -6.25 3.7075 -6.25 2.6875 C-4.08146295 0.51896295 -3.10906228 -0.43181421 0 0 Z " fill="#5CA3EE" transform="translate(37.25,8.3125)"/>
<path d="M0 0 C0.33 0.66 0.66 1.32 1 2 C2.98 2 4.96 2 7 2 C7.33 2.66 7.66 3.32 8 4 C7.05125 3.95875 6.1025 3.9175 5.125 3.875 C1.89755144 3.65026182 1.89755144 3.65026182 0 6 C-0.64767793 8.57061311 -0.64767793 8.57061311 -1 11 C-1.33 11 -1.66 11 -2 11 C-2 8.69 -2 6.38 -2 4 C-2.99 4 -3.98 4 -5 4 C-5 7.3 -5 10.6 -5 14 C-5.33 14 -5.66 14 -6 14 C-6.10815225 12.23050905 -6.18566083 10.45912513 -6.25 8.6875 C-6.29640625 7.70136719 -6.3428125 6.71523438 -6.390625 5.69921875 C-6 3 -6 3 -4.109375 1.14453125 C-2 0 -2 0 0 0 Z " fill="#689CD1" transform="translate(31,26)"/>
<path d="M0 0 C1.21752584 3.65257751 1.02957396 6.71202922 0.9375 10.52734375 C0.99639212 12.85726329 1.33907161 14.77453018 2 17 C1.01 16.67 0.02 16.34 -1 16 C-2.81423329 11.79628871 -3.21634008 7.93192652 -2.1875 3.5 C-1 1 -1 1 0 0 Z " fill="#59A5EF" transform="translate(7,13)"/>
<path d="M0 0 C0.33 0 0.66 0 1 0 C1.33 3.3 1.66 6.6 2 10 C-1.1414436 8.16749123 -4.22602027 6.36301977 -7 4 C-7 3.34 -7 2.68 -7 2 C-5.02 2 -3.04 2 -1 2 C-0.67 1.34 -0.34 0.68 0 0 Z " fill="#677F9C" transform="translate(46,18)"/>
<path d="M0 0 C0.66 0 1.32 0 2 0 C3.88391785 3.26545761 4.49287967 6.28111761 5 10 C6.65 9.67 8.3 9.34 10 9 C10.33 8.01 10.66 7.02 11 6 C11.66 6.33 12.32 6.66 13 7 C11.875 9 11.875 9 10 11 C6.8125 11.25 6.8125 11.25 4 11 C0 4.5 0 4.5 0 0 Z " fill="#689FD3" transform="translate(28,52)"/>
<path d="M0 0 C0.99 0.495 0.99 0.495 2 1 C2.625 3.5625 2.625 3.5625 3 6 C4.65 4.68 6.3 3.36 8 2 C7.67 4.31 7.34 6.62 7 9 C5.02 9 3.04 9 1 9 C-0.4783226 6.04335481 -0.06032783 3.25770263 0 0 Z " fill="#5AA2F0" transform="translate(49,20)"/>
<path d="M0 0 C0.99 0 1.98 0 3 0 C3.33 3.63 3.66 7.26 4 11 C2.68 10.67 1.36 10.34 0 10 C0 6.7 0 3.4 0 0 Z " fill="#5DA5ED" transform="translate(26,30)"/>
<path d="M0 0 C0.66 0 1.32 0 2 0 C2 1.32 2 2.64 2 4 C-2.95 4 -7.9 4 -13 4 C-13 3.34 -13 2.68 -13 2 C-8.71 2 -4.42 2 0 2 C0 1.34 0 0.68 0 0 Z " fill="#59A3F1" transform="translate(23,9)"/>
<path d="M0 0 C2.64 0 5.28 0 8 0 C8 0.99 8 1.98 8 3 C5 5 5 5 1 5 C0.67 3.35 0.34 1.7 0 0 Z " fill="#5FA2E4" transform="translate(32,41)"/>
<path d="M0 0 C0 1.65 0 3.3 0 5 C-0.99 5 -1.98 5 -3 5 C-3.33 5.66 -3.66 6.32 -4 7 C-4.99 6.34 -5.98 5.68 -7 5 C-7.33 5.66 -7.66 6.32 -8 7 C-8.33 6.01 -8.66 5.02 -9 4 C-8.34 3.34 -7.68 2.68 -7 2 C-6.34 2 -5.68 2 -5 2 C-2 0 -2 0 0 0 Z " fill="#67829D" transform="translate(23,32)"/>
<path d="M0 0 C0.99 0.33 1.98 0.66 3 1 C1.82744291 4.33727786 0.81131596 6.77437487 -2 9 C-2.66 9 -3.32 9 -4 9 C-4 8.34 -4 7.68 -4 7 C-5.32 6.67 -6.64 6.34 -8 6 C-7.05125 5.7525 -6.1025 5.505 -5.125 5.25 C-1.91306809 4.3142923 -1.91306809 4.3142923 -0.625 1.875 C-0.41875 1.25625 -0.2125 0.6375 0 0 Z " fill="#607692" transform="translate(41,57)"/>
<path d="M0 0 C0.66 0 1.32 0 2 0 C2.45375 1.134375 2.9075 2.26875 3.375 3.4375 C4.37152519 5.43652483 4.37152519 5.43652483 6 7 C9.33940009 7.92121382 12.54740941 8.04612239 16 8 C16 8.33 16 8.66 16 9 C10.06 9.495 10.06 9.495 4 10 C2.68 6.7 1.36 3.4 0 0 Z " fill="#69A1D8" transform="translate(41,5)"/>
<path d="M0 0 C0.99 0.33 1.98 0.66 3 1 C2.67 1.66 2.34 2.32 2 3 C2.99 4.32 3.98 5.64 5 7 C5.66 6.67 6.32 6.34 7 6 C7 7.32 7 8.64 7 10 C5.35 10 3.7 10 2 10 C2 8.68 2 7.36 2 6 C1.34 6 0.68 6 0 6 C0 4.02 0 2.04 0 0 Z " fill="#59A4F0" transform="translate(13,19)"/>
<path d="M0 0 C0.66 0.66 1.32 1.32 2 2 C4.06874034 2.6425235 4.06874034 2.6425235 6 3 C5.67 5.31 5.34 7.62 5 10 C4.6596875 9.1028125 4.6596875 9.1028125 4.3125 8.1875 C2.66188867 5.43648112 0.8027919 4.47515363 -2 3 C-1.34 2.67 -0.68 2.34 0 2 C0 1.34 0 0.68 0 0 Z " fill="#60798C" transform="translate(38,47)"/>
<path d="M0 0 C0.99 0 1.98 0 3 0 C4.42944945 2.35438733 5.08661261 3.48032433 4.625 6.25 C4.41875 6.8275 4.2125 7.405 4 8 C3.34 6.68 2.68 5.36 2 4 C1.01 4 0.02 4 -1 4 C-0.67 2.68 -0.34 1.36 0 0 Z " fill="#5BA4F0" transform="translate(52,39)"/>
<path d="M0 0 C0.99 0 1.98 0 3 0 C2.67 1.65 2.34 3.3 2 5 C1.4225 5.12375 0.845 5.2475 0.25 5.375 C-2.02335767 6.00648824 -3.9253529 6.88858191 -6 8 C-5.67 7.01 -5.34 6.02 -5 5 C-4.34 5 -3.68 5 -3 5 C-2.5359375 4.0409375 -2.5359375 4.0409375 -2.0625 3.0625 C-1 1 -1 1 0 0 Z " fill="#616F7F" transform="translate(22,28)"/>
<path d="M0 0 C1.32 0.33 2.64 0.66 4 1 C2.68 3.64 1.36 6.28 0 9 C-0.66 9 -1.32 9 -2 9 C-1.34 6.03 -0.68 3.06 0 0 Z " fill="#5CA4EC" transform="translate(62,24)"/>
<path d="M0 0 C0.99 0 1.98 0 3 0 C3.33 0.66 3.66 1.32 4 2 C4.99 2.33 5.98 2.66 7 3 C6.01 3.495 6.01 3.495 5 4 C5 7.3 5 10.6 5 14 C4.67 14 4.34 14 4 14 C3.96261719 13.40832031 3.92523438 12.81664062 3.88671875 12.20703125 C3.48623099 7.39332549 2.9614965 3.99158223 0 0 Z " fill="#6599D3" transform="translate(58,38)"/>
<path d="M0 0 C2.475 0.99 2.475 0.99 5 2 C3.71034824 3.37562854 2.37310707 4.70766393 1 6 C0.34 6 -0.32 6 -1 6 C-1.042721 4.33388095 -1.04063832 2.66617115 -1 1 C-0.67 0.67 -0.34 0.34 0 0 Z " fill="#6C9DD3" transform="translate(27,19)"/>
<path d="M0 0 C2.875 -0.125 2.875 -0.125 6 0 C6.66 0.66 7.32 1.32 8 2 C7.01 3.485 7.01 3.485 6 5 C2.83884224 3.63016497 2.0072908 3.0109362 0 0 Z " fill="#6A97CD" transform="translate(48,28)"/>
<path d="M0 0 C1.625 1.6875 1.625 1.6875 3 4 C2.1875 6.75 2.1875 6.75 1 9 C0.67 9 0.34 9 0 9 C0 7.02 0 5.04 0 3 C-0.99 3 -1.98 3 -3 3 C-3 2.34 -3 1.68 -3 1 C-2.01 0.67 -1.02 0.34 0 0 Z " fill="#616E77" transform="translate(46,25)"/>
<path d="M0 0 C0.66 0.33 1.32 0.66 2 1 C1.375 7.625 1.375 7.625 -2 11 C-1.34 7.37 -0.68 3.74 0 0 Z " fill="#6B9BD3" transform="translate(58,18)"/>
<path d="M0 0 C2.97 1.98 2.97 1.98 6 4 C5.01 5.485 5.01 5.485 4 7 C2.02 5.68 0.04 4.36 -2 3 C-1.34 2.67 -0.68 2.34 0 2 C0 1.34 0 0.68 0 0 Z " fill="#63778F" transform="translate(38,21)"/>
<path d="M0 0 C0 1.65 0 3.3 0 5 C-1.65 4.67 -3.3 4.34 -5 4 C-4.67 3.01 -4.34 2.02 -4 1 C-2 0 -2 0 0 0 Z " fill="#6A9ED1" transform="translate(44,45)"/>
<path d="M0 0 C1.98 0.99 1.98 0.99 4 2 C3.67 3.65 3.34 5.3 3 7 C2.01 6.67 1.02 6.34 0 6 C0 4.02 0 2.04 0 0 Z " fill="#668AAE" transform="translate(48,32)"/>
<path d="M0 0 C2.5 1.375 2.5 1.375 5 3 C5 3.66 5 4.32 5 5 C3.35 5.33 1.7 5.66 0 6 C0 4.02 0 2.04 0 0 Z " fill="#699ED2" transform="translate(26,44)"/>
<path d="M0 0 C0.99 0.33 1.98 0.66 3 1 C2.01 1.33 1.02 1.66 0 2 C-0.33 3.65 -0.66 5.3 -1 7 C-1.66 7 -2.32 7 -3 7 C-3.33 5.68 -3.66 4.36 -4 3 C-2.1875 1.4375 -2.1875 1.4375 0 0 Z " fill="#639DD4" transform="translate(52,37)"/>
<path d="M0 0 C1.32 0 2.64 0 4 0 C4.33 1.32 4.66 2.64 5 4 C3.68 4.33 2.36 4.66 1 5 C0.67 3.35 0.34 1.7 0 0 Z M0 5 C0 8 0 8 0 8 Z " fill="#5AA5F0" transform="translate(8,32)"/>
<path d="M0 0 C1.258125 0.226875 2.51625 0.45375 3.8125 0.6875 C0.17826791 3.01340854 -2.95838331 2.85015833 -7.1875 2.6875 C-5.15110924 -0.49436057 -3.4972064 -0.45804119 0 0 Z " fill="#617F9B" transform="translate(20.1875,53.3125)"/>
<path d="M0 0 C1.65 0 3.3 0 5 0 C5 1.32 5 2.64 5 4 C3.0625 3.6875 3.0625 3.6875 1 3 C0.67 2.01 0.34 1.02 0 0 Z " fill="#699FD8" transform="translate(39,20)"/>
</svg>
